<svg xmlns="http://www.w3.org/2000/svg" xmlns:xlink="http://www.w3.org/1999/xlink" width="500" zoomAndPan="magnify" viewBox="0 0 375 374.999991" height="500" preserveAspectRatio="xMidYMid meet" version="1.0"><defs><clipPath id="11a3867f24"><path d="M 83 15.996094 L 324 15.996094 L 324 358.746094 L 83 358.746094 Z M 83 15.996094 " clip-rule="nonzero"/></clipPath><clipPath id="2a4401150b"><path d="M 289 15.996094 L 367.679688 15.996094 L 367.679688 73 L 289 73 Z M 289 15.996094 " clip-rule="nonzero"/></clipPath><clipPath id="b0eba2c624"><path d="M 40 287 L 251 287 L 251 358.746094 L 40 358.746094 Z M 40 287 " clip-rule="nonzero"/></clipPath><clipPath id="36f1627adb"><path d="M 7.679688 114 L 154 114 L 154 261 L 7.679688 261 Z M 7.679688 114 " clip-rule="nonzero"/></clipPath></defs><g clip-path="url(#11a3867f24)"><path fill="#207bff" d="M 243.402344 358.574219 C 240.242188 358.574219 237.507812 356.257812 237.085938 352.886719 C 236.875 349.519531 239.402344 346.359375 242.769531 345.9375 C 269.511719 343.203125 289.722656 320.671875 289.722656 293.722656 L 289.722656 66.109375 C 289.722656 62.53125 292.460938 59.792969 296.042969 59.792969 C 299.410156 59.792969 302.359375 62.53125 302.359375 66.109375 L 302.359375 293.722656 C 302.359375 326.988281 277.300781 354.992188 244.035156 358.574219 C 243.824219 358.574219 243.613281 358.574219 243.402344 358.574219 Z M 89.484375 300.039062 C 85.90625 300.039062 83.167969 297.089844 83.167969 293.722656 L 83.167969 253.292969 C 83.167969 249.925781 85.90625 246.976562 89.484375 246.976562 C 92.855469 246.976562 95.800781 249.925781 95.800781 253.292969 L 95.800781 293.722656 C 95.800781 297.089844 92.855469 300.039062 89.484375 300.039062 Z M 89.484375 127.804688 C 85.90625 127.804688 83.167969 125.066406 83.167969 121.488281 L 83.167969 56.425781 C 83.167969 34.105469 101.277344 15.996094 123.597656 15.996094 L 317.097656 15.996094 C 320.675781 15.996094 323.414062 18.734375 323.414062 22.316406 C 323.414062 25.683594 320.675781 28.632812 317.097656 28.632812 L 123.597656 28.632812 C 108.226562 28.632812 95.800781 41.054688 95.800781 56.425781 L 95.800781 121.488281 C 95.800781 125.066406 92.855469 127.804688 89.484375 127.804688 Z M 89.484375 127.804688 " fill-opacity="1" fill-rule="evenodd"/></g><g clip-path="url(#2a4401150b)"><path fill="#207bff" d="M 360.894531 72.425781 L 296.042969 72.425781 C 292.460938 72.425781 289.722656 69.480469 289.722656 66.109375 L 289.722656 44.210938 C 289.722656 28.632812 302.359375 15.996094 317.9375 15.996094 L 338.996094 15.996094 C 354.574219 15.996094 367.210938 28.632812 367.210938 44.210938 L 367.210938 66.109375 C 367.210938 69.480469 364.261719 72.425781 360.894531 72.425781 Z M 302.359375 59.792969 L 354.574219 59.792969 L 354.574219 44.210938 C 354.574219 35.578125 347.417969 28.632812 338.996094 28.632812 L 317.9375 28.632812 C 309.304688 28.632812 302.359375 35.578125 302.359375 44.210938 Z M 302.359375 59.792969 " fill-opacity="1" fill-rule="evenodd"/></g><g clip-path="url(#b0eba2c624)"><path fill="#207bff" d="M 243.824219 358.992188 L 105.277344 358.992188 C 69.273438 358.992188 40.003906 329.726562 40.003906 293.722656 C 40.003906 290.140625 42.742188 287.40625 46.320312 287.40625 L 243.824219 287.40625 C 246.351562 287.40625 248.457031 288.878906 249.507812 291.195312 C 250.5625 293.511719 250.140625 296.039062 248.457031 297.933594 C 232.664062 315.410156 232.453125 331.199219 247.824219 347.835938 C 249.296875 348.886719 250.140625 350.78125 250.140625 352.675781 C 250.140625 356.046875 247.402344 358.992188 243.824219 358.992188 Z M 53.058594 300.039062 C 56.21875 326.148438 78.324219 346.359375 105.277344 346.359375 L 230.769531 346.359375 C 221.292969 331.199219 221.503906 315.410156 230.980469 300.039062 Z M 53.058594 300.039062 " fill-opacity="1" fill-rule="evenodd"/></g><g clip-path="url(#36f1627adb)"><path fill="#207bff" d="M 80.640625 260.242188 C 40.425781 260.242188 7.789062 227.605469 7.789062 187.390625 C 7.789062 147.386719 40.425781 114.75 80.640625 114.75 C 120.648438 114.75 153.285156 147.386719 153.285156 187.390625 C 153.285156 227.605469 120.648438 260.242188 80.640625 260.242188 Z M 80.640625 127.382812 C 47.375 127.382812 20.421875 154.332031 20.421875 187.390625 C 20.421875 220.660156 47.375 247.609375 80.640625 247.609375 C 113.699219 247.609375 140.652344 220.660156 140.652344 187.390625 C 140.652344 154.332031 113.699219 127.382812 80.640625 127.382812 Z M 80.640625 127.382812 " fill-opacity="1" fill-rule="evenodd"/></g><path fill="#207bff" d="M 68.007812 214.550781 C 66.535156 214.550781 64.851562 213.921875 63.585938 212.65625 L 47.375 196.234375 C 44.847656 193.917969 44.847656 189.917969 47.375 187.390625 C 49.691406 184.863281 53.691406 184.863281 56.21875 187.390625 L 68.007812 199.183594 L 105.066406 162.335938 C 107.382812 159.808594 111.382812 159.808594 113.910156 162.335938 C 116.4375 164.859375 116.4375 168.863281 113.910156 171.179688 L 72.429688 212.65625 C 71.378906 213.921875 69.695312 214.550781 68.007812 214.550781 Z M 68.007812 214.550781 " fill-opacity="1" fill-rule="evenodd"/><path fill="#207bff" d="M 256.667969 71.585938 L 149.914062 71.585938 C 146.335938 71.585938 143.597656 68.636719 143.597656 65.269531 C 143.597656 61.6875 146.335938 58.953125 149.914062 58.953125 L 256.667969 58.953125 C 260.035156 58.953125 262.984375 61.6875 262.984375 65.269531 C 262.984375 68.636719 260.035156 71.585938 256.667969 71.585938 Z M 256.667969 71.585938 " fill-opacity="1" fill-rule="evenodd"/><path fill="#207bff" d="M 256.667969 108.640625 L 149.914062 108.640625 C 146.335938 108.640625 143.597656 105.695312 143.597656 102.324219 C 143.597656 98.746094 146.335938 96.007812 149.914062 96.007812 L 256.667969 96.007812 C 260.035156 96.007812 262.984375 98.746094 262.984375 102.324219 C 262.984375 105.695312 260.035156 108.640625 256.667969 108.640625 Z M 256.667969 108.640625 " fill-opacity="1" fill-rule="evenodd"/><path fill="#207bff" d="M 256.667969 145.699219 L 182.550781 145.699219 C 179.183594 145.699219 176.234375 142.964844 176.234375 139.382812 C 176.234375 136.015625 179.183594 133.066406 182.550781 133.066406 L 256.667969 133.066406 C 260.035156 133.066406 262.984375 136.015625 262.984375 139.382812 C 262.984375 142.964844 260.035156 145.699219 256.667969 145.699219 Z M 256.667969 145.699219 " fill-opacity="1" fill-rule="evenodd"/><path fill="#207bff" d="M 256.667969 182.96875 L 182.550781 182.96875 C 179.183594 182.96875 176.234375 180.019531 176.234375 176.652344 C 176.234375 173.074219 179.183594 170.335938 182.550781 170.335938 L 256.667969 170.335938 C 260.035156 170.335938 262.984375 173.074219 262.984375 176.652344 C 262.984375 180.019531 260.035156 182.96875 256.667969 182.96875 Z M 256.667969 182.96875 " fill-opacity="1" fill-rule="evenodd"/><path fill="#207bff" d="M 256.667969 220.027344 L 182.550781 220.027344 C 179.183594 220.027344 176.234375 217.078125 176.234375 213.710938 C 176.234375 210.128906 179.183594 207.394531 182.550781 207.394531 L 256.667969 207.394531 C 260.035156 207.394531 262.984375 210.128906 262.984375 213.710938 C 262.984375 217.078125 260.035156 220.027344 256.667969 220.027344 Z M 256.667969 220.027344 " fill-opacity="1" fill-rule="evenodd"/><path fill="#207bff" d="M 256.667969 257.085938 L 149.914062 257.085938 C 146.335938 257.085938 143.597656 254.347656 143.597656 250.769531 C 143.597656 247.398438 146.335938 244.453125 149.914062 244.453125 L 256.667969 244.453125 C 260.035156 244.453125 262.984375 247.398438 262.984375 250.769531 C 262.984375 254.347656 260.035156 257.085938 256.667969 257.085938 Z M 256.667969 257.085938 " fill-opacity="1" fill-rule="evenodd"/></svg>