<svg xmlns="http://www.w3.org/2000/svg" xmlns:xlink="http://www.w3.org/1999/xlink" width="500" zoomAndPan="magnify" viewBox="0 0 375 374.999991" height="500" preserveAspectRatio="xMidYMid meet" version="1.0"><path fill="#001f54" d="M 187.5 375 C 291.054688 375 375 291.054688 375 187.5 C 375 83.945312 291.054688 0 187.5 0 C 83.945312 0 0 83.945312 0 187.5 C 0 291.054688 83.945312 375 187.5 375 Z M 187.5 87.5 C 165.207031 87.5 144.339844 94.667969 128.949219 108.957031 C 113.445312 123.351562 104.304688 144.230469 104.304688 169.941406 C 104.304688 189.917969 115.355469 211.777344 127.628906 230.296875 C 140.199219 249.269531 155.390625 266.679688 166.128906 278.15625 C 177.78125 290.613281 197.21875 290.613281 208.871094 278.15625 C 219.609375 266.679688 234.800781 249.269531 247.371094 230.296875 C 259.644531 211.777344 270.695312 189.917969 270.695312 169.941406 C 270.695312 144.230469 261.554688 123.351562 246.050781 108.957031 C 230.660156 94.667969 209.796875 87.5 187.5 87.5 Z M 187.5 139.496094 C 176.015625 139.496094 166.703125 148.808594 166.703125 160.296875 C 166.703125 171.78125 176.015625 181.09375 187.5 181.09375 C 198.988281 181.09375 208.296875 171.78125 208.296875 160.296875 C 208.296875 148.808594 198.988281 139.496094 187.5 139.496094 Z M 145.902344 160.296875 C 145.902344 137.324219 164.527344 118.699219 187.5 118.699219 C 210.472656 118.699219 229.097656 137.324219 229.097656 160.296875 C 229.097656 183.269531 210.472656 201.894531 187.5 201.894531 C 164.527344 201.894531 145.902344 183.269531 145.902344 160.296875 Z M 145.902344 160.296875 " fill-opacity="1" fill-rule="evenodd"/></svg>