<svg xmlns="http://www.w3.org/2000/svg" xmlns:xlink="http://www.w3.org/1999/xlink" width="500" zoomAndPan="magnify" viewBox="0 0 375 374.999991" height="500" preserveAspectRatio="xMidYMid meet" version="1.0"><path fill="#207bff" d="M 352.628906 173.054688 L 343.058594 187.25 L 135.792969 47.65625 L 145.363281 33.460938 C 149.753906 26.933594 158.652344 25.191406 165.15625 29.582031 L 348.75 153.238281 C 355.277344 157.628906 357.019531 166.527344 352.628906 173.054688 Z M 285.863281 272.179688 L 296.386719 197.074219 L 323.941406 215.636719 Z M 266.351562 337.320312 C 265.257812 345.101562 258.035156 350.5625 250.25 349.46875 L 31.046875 318.757812 C 23.265625 317.667969 17.78125 310.417969 18.898438 302.636719 L 32.347656 206.578125 L 279.824219 241.285156 Z M 39.480469 155.746094 C 40.570312 147.941406 47.796875 142.507812 55.578125 143.597656 L 274.785156 174.332031 C 282.589844 175.402344 288.046875 182.625 286.933594 190.429688 L 284.5625 207.367188 L 37.085938 172.683594 Z M 116.699219 76.042969 L 239.960938 159.070312 L 76.230469 136.09375 Z M 354.488281 144.738281 L 170.917969 21.078125 C 159.699219 13.527344 144.414062 16.480469 136.839844 27.722656 L 64.894531 134.515625 L 57.019531 133.421875 C 43.613281 131.542969 31.1875 140.925781 29.304688 154.332031 L 8.746094 301.195312 C 6.839844 314.601562 16.226562 327.027344 29.605469 328.910156 L 248.8125 359.644531 C 262.214844 361.527344 274.644531 352.117188 276.527344 338.738281 L 282.613281 295.386719 L 361.132812 178.769531 C 368.707031 167.574219 365.707031 152.285156 354.488281 144.738281 " fill-opacity="1" fill-rule="nonzero"/><path fill="#207bff" d="M 150.683594 249.925781 L 256.382812 264.769531 L 257.546875 256.382812 L 151.871094 241.5625 L 150.683594 249.925781 " fill-opacity="1" fill-rule="nonzero"/><path fill="#207bff" d="M 148.175781 268.046875 L 253.851562 282.84375 L 255.015625 274.457031 L 149.335938 259.636719 L 148.175781 268.046875 " fill-opacity="1" fill-rule="nonzero"/></svg>