<svg xmlns="http://www.w3.org/2000/svg" xmlns:xlink="http://www.w3.org/1999/xlink" width="500" zoomAndPan="magnify" viewBox="0 0 375 374.999991" height="500" preserveAspectRatio="xMidYMid meet" version="1.0"><defs><clipPath id="b4f965a8b7"><path d="M 83 8 L 291 8 L 291 368.734375 L 83 368.734375 Z M 83 8 " clip-rule="nonzero"/></clipPath></defs><g clip-path="url(#b4f965a8b7)"><path fill="#207bff" d="M 104.886719 368.183594 C 103.441406 368.175781 102.03125 367.9375 100.664062 367.460938 C 99.296875 366.988281 98.039062 366.308594 96.898438 365.421875 C 96.273438 364.957031 95.695312 364.441406 95.164062 363.875 C 94.632812 363.308594 94.15625 362.699219 93.738281 362.042969 C 93.316406 361.390625 92.957031 360.707031 92.660156 359.988281 C 92.363281 359.269531 92.132812 358.53125 91.96875 357.769531 C 91.808594 357.011719 91.714844 356.242188 91.6875 355.464844 C 91.664062 354.6875 91.710938 353.914062 91.824219 353.148438 C 91.941406 352.378906 92.125 351.625 92.375 350.890625 C 92.628906 350.15625 92.941406 349.449219 93.324219 348.769531 L 93.386719 348.660156 L 171.773438 209.859375 L 97.03125 209.859375 C 95.742188 209.855469 94.484375 209.667969 93.253906 209.296875 C 92.019531 208.921875 90.867188 208.378906 89.796875 207.667969 C 88.722656 206.953125 87.777344 206.101562 86.957031 205.109375 C 86.132812 204.121094 85.472656 203.03125 84.972656 201.84375 C 84.472656 200.660156 84.152344 199.425781 84.015625 198.144531 C 83.878906 196.867188 83.925781 195.59375 84.164062 194.328125 C 84.402344 193.0625 84.816406 191.859375 85.410156 190.714844 C 86 189.570312 86.746094 188.539062 87.640625 187.613281 L 246.878906 12.121094 L 247.109375 11.878906 C 247.644531 11.34375 248.222656 10.859375 248.84375 10.425781 C 249.464844 9.988281 250.117188 9.609375 250.804688 9.289062 C 251.492188 8.96875 252.199219 8.707031 252.933594 8.507812 C 253.664062 8.308594 254.40625 8.175781 255.164062 8.105469 C 255.917969 8.035156 256.671875 8.03125 257.429688 8.089844 C 258.183594 8.152344 258.929688 8.277344 259.664062 8.46875 C 260.398438 8.660156 261.109375 8.910156 261.800781 9.222656 C 262.488281 9.539062 263.148438 9.910156 263.773438 10.335938 C 264.398438 10.765625 264.984375 11.242188 265.527344 11.773438 C 266.070312 12.300781 266.5625 12.875 267.007812 13.488281 C 267.449219 14.105469 267.835938 14.753906 268.167969 15.433594 C 268.5 16.117188 268.769531 16.820312 268.976562 17.550781 C 269.1875 18.28125 269.332031 19.019531 269.410156 19.773438 C 269.492188 20.527344 269.507812 21.285156 269.457031 22.039062 C 269.40625 22.796875 269.289062 23.542969 269.109375 24.28125 C 268.929688 25.015625 268.6875 25.730469 268.382812 26.425781 L 268.289062 26.628906 L 206.371094 156.121094 L 272.140625 156.121094 C 273.039062 156.121094 273.9375 156.1875 274.828125 156.320312 C 275.71875 156.449219 276.597656 156.648438 277.457031 156.90625 C 278.320312 157.167969 279.160156 157.488281 279.976562 157.871094 C 280.792969 158.257812 281.574219 158.695312 282.328125 159.195312 C 283.078125 159.691406 283.789062 160.242188 284.457031 160.84375 C 285.128906 161.445312 285.753906 162.09375 286.328125 162.789062 C 286.902344 163.480469 287.425781 164.210938 287.894531 164.980469 C 288.363281 165.75 288.773438 166.550781 289.125 167.382812 C 289.476562 168.210938 289.765625 169.0625 289.992188 169.933594 C 290.21875 170.804688 290.382812 171.691406 290.480469 172.585938 C 290.578125 173.480469 290.609375 174.378906 290.574219 175.28125 C 290.542969 176.179688 290.441406 177.074219 290.277344 177.960938 C 290.113281 178.847656 289.886719 179.714844 289.59375 180.566406 C 289.300781 181.421875 288.949219 182.246094 288.535156 183.046875 C 288.121094 183.847656 287.652344 184.617188 287.128906 185.347656 C 286.601562 186.078125 286.027344 186.769531 285.402344 187.417969 L 114.089844 364.253906 L 113.894531 364.449219 C 112.691406 365.632812 111.308594 366.542969 109.753906 367.191406 C 108.195312 367.835938 106.574219 368.167969 104.886719 368.183594 Z M 104.535156 354.746094 Z M 97.929688 196.339844 L 172.453125 196.339844 C 173.019531 196.339844 173.582031 196.375 174.140625 196.449219 C 174.699219 196.519531 175.253906 196.628906 175.800781 196.773438 C 176.347656 196.917969 176.882812 197.097656 177.40625 197.3125 C 177.925781 197.527344 178.433594 197.773438 178.925781 198.050781 C 179.417969 198.332031 179.886719 198.640625 180.339844 198.980469 C 180.789062 199.320312 181.21875 199.6875 181.621094 200.082031 C 182.023438 200.476562 182.402344 200.898438 182.75 201.34375 C 183.101562 201.785156 183.421875 202.25 183.710938 202.734375 C 184 203.222656 184.253906 203.722656 184.480469 204.242188 C 184.703125 204.761719 184.894531 205.289062 185.050781 205.835938 C 185.207031 206.378906 185.328125 206.929688 185.410156 207.488281 C 185.496094 208.046875 185.542969 208.605469 185.558594 209.171875 C 185.570312 209.738281 185.542969 210.300781 185.484375 210.863281 C 185.421875 211.421875 185.328125 211.980469 185.195312 212.527344 C 185.0625 213.078125 184.894531 213.617188 184.691406 214.144531 C 184.488281 214.671875 184.253906 215.183594 183.988281 215.679688 L 183.921875 215.789062 L 106.726562 352.488281 L 275.683594 178.027344 C 276.023438 177.679688 276.304688 177.289062 276.527344 176.855469 C 276.753906 176.421875 276.910156 175.96875 277 175.488281 C 277.089844 175.011719 277.105469 174.527344 277.054688 174.042969 C 277 173.5625 276.878906 173.09375 276.691406 172.644531 C 276.5 172.199219 276.25 171.785156 275.9375 171.410156 C 275.628906 171.035156 275.269531 170.714844 274.863281 170.445312 C 274.457031 170.179688 274.019531 169.972656 273.554688 169.832031 C 273.085938 169.695312 272.609375 169.625 272.125 169.625 L 205.738281 169.625 C 205.195312 169.625 204.65625 169.589844 204.117188 169.523438 C 203.578125 169.457031 203.046875 169.355469 202.519531 169.222656 C 201.992188 169.089844 201.476562 168.925781 200.972656 168.726562 C 200.464844 168.53125 199.976562 168.304688 199.496094 168.042969 C 199.019531 167.785156 198.5625 167.5 198.117188 167.183594 C 197.675781 166.867188 197.257812 166.527344 196.855469 166.160156 C 196.457031 165.792969 196.082031 165.402344 195.730469 164.988281 C 195.382812 164.574219 195.058594 164.140625 194.761719 163.683594 C 194.464844 163.230469 194.195312 162.757812 193.957031 162.273438 C 193.71875 161.785156 193.511719 161.285156 193.335938 160.769531 C 193.160156 160.257812 193.015625 159.734375 192.902344 159.203125 C 192.792969 158.671875 192.714844 158.136719 192.667969 157.59375 C 192.625 157.054688 192.613281 156.511719 192.636719 155.972656 C 192.65625 155.429688 192.714844 154.890625 192.804688 154.355469 C 192.890625 153.820312 193.015625 153.292969 193.167969 152.769531 C 193.324219 152.25 193.511719 151.742188 193.726562 151.246094 L 193.820312 151.042969 L 254.855469 23.445312 Z M 262.203125 23.710938 Z M 262.203125 23.710938 " fill-opacity="1" fill-rule="nonzero"/></g></svg>