<svg xmlns="http://www.w3.org/2000/svg" xmlns:xlink="http://www.w3.org/1999/xlink" width="500" zoomAndPan="magnify" viewBox="0 0 375 374.999991" height="500" preserveAspectRatio="xMidYMid meet" version="1.0"><defs><clipPath id="c7619f08b5"><path d="M 30.722656 30.722656 L 344.222656 30.722656 L 344.222656 344.222656 L 30.722656 344.222656 Z M 30.722656 30.722656 " clip-rule="nonzero"/></clipPath></defs><g clip-path="url(#c7619f08b5)"><path fill="#207bff" d="M 187.496094 30.722656 C 184.929688 30.722656 182.363281 30.785156 179.800781 30.910156 C 177.238281 31.035156 174.679688 31.226562 172.128906 31.476562 C 169.574219 31.726562 167.027344 32.042969 164.492188 32.417969 C 161.953125 32.792969 159.425781 33.234375 156.910156 33.734375 C 154.394531 34.234375 151.890625 34.796875 149.402344 35.417969 C 146.914062 36.042969 144.441406 36.726562 141.984375 37.472656 C 139.53125 38.214844 137.09375 39.019531 134.679688 39.886719 C 132.261719 40.75 129.871094 41.671875 127.5 42.65625 C 125.128906 43.636719 122.785156 44.675781 120.464844 45.773438 C 118.144531 46.871094 115.855469 48.023438 113.59375 49.234375 C 111.328125 50.441406 109.097656 51.707031 106.898438 53.027344 C 104.695312 54.34375 102.53125 55.71875 100.394531 57.140625 C 98.261719 58.566406 96.164062 60.042969 94.105469 61.574219 C 92.042969 63.101562 90.023438 64.679688 88.039062 66.308594 C 86.054688 67.933594 84.113281 69.609375 82.210938 71.332031 C 80.3125 73.054688 78.453125 74.824219 76.640625 76.640625 C 74.824219 78.453125 73.054688 80.3125 71.332031 82.210938 C 69.609375 84.113281 67.933594 86.054688 66.308594 88.039062 C 64.679688 90.023438 63.101562 92.042969 61.574219 94.105469 C 60.042969 96.164062 58.566406 98.261719 57.140625 100.394531 C 55.71875 102.53125 54.34375 104.695312 53.027344 106.898438 C 51.707031 109.097656 50.441406 111.328125 49.234375 113.59375 C 48.023438 115.855469 46.871094 118.144531 45.773438 120.464844 C 44.675781 122.785156 43.636719 125.128906 42.65625 127.5 C 41.671875 129.871094 40.75 132.261719 39.886719 134.679688 C 39.019531 137.09375 38.214844 139.53125 37.472656 141.984375 C 36.726562 144.441406 36.042969 146.914062 35.417969 149.402344 C 34.796875 151.890625 34.234375 154.394531 33.734375 156.910156 C 33.234375 159.425781 32.792969 161.953125 32.417969 164.492188 C 32.042969 167.027344 31.726562 169.574219 31.476562 172.128906 C 31.226562 174.679688 31.035156 177.238281 30.910156 179.800781 C 30.785156 182.363281 30.722656 184.929688 30.722656 187.496094 C 30.722656 190.058594 30.785156 192.625 30.910156 195.1875 C 31.035156 197.75 31.226562 200.308594 31.476562 202.859375 C 31.726562 205.414062 32.042969 207.960938 32.417969 210.5 C 32.792969 213.035156 33.234375 215.5625 33.734375 218.078125 C 34.234375 220.597656 34.796875 223.097656 35.417969 225.585938 C 36.042969 228.078125 36.726562 230.546875 37.472656 233.003906 C 38.214844 235.457031 39.019531 237.894531 39.886719 240.308594 C 40.75 242.726562 41.671875 245.117188 42.65625 247.488281 C 43.636719 249.859375 44.675781 252.203125 45.773438 254.523438 C 46.871094 256.84375 48.023438 259.132812 49.234375 261.398438 C 50.441406 263.660156 51.707031 265.890625 53.027344 268.09375 C 54.34375 270.292969 55.71875 272.460938 57.140625 274.59375 C 58.566406 276.726562 60.042969 278.824219 61.574219 280.882812 C 63.101562 282.945312 64.679688 284.96875 66.308594 286.949219 C 67.933594 288.933594 69.609375 290.875 71.332031 292.777344 C 73.054688 294.679688 74.824219 296.535156 76.640625 298.351562 C 78.453125 300.164062 80.3125 301.933594 82.210938 303.65625 C 84.113281 305.378906 86.054688 307.054688 88.039062 308.683594 C 90.023438 310.308594 92.042969 311.886719 94.105469 313.417969 C 96.164062 314.945312 98.261719 316.421875 100.394531 317.847656 C 102.53125 319.273438 104.695312 320.644531 106.898438 321.964844 C 109.097656 323.28125 111.328125 324.546875 113.59375 325.757812 C 115.855469 326.964844 118.144531 328.121094 120.464844 329.214844 C 122.785156 330.3125 125.128906 331.351562 127.5 332.335938 C 129.871094 333.316406 132.261719 334.238281 134.679688 335.105469 C 137.09375 335.96875 139.53125 336.773438 141.984375 337.515625 C 144.441406 338.261719 146.914062 338.945312 149.402344 339.570312 C 151.890625 340.191406 154.394531 340.753906 156.910156 341.253906 C 159.425781 341.757812 161.953125 342.195312 164.492188 342.570312 C 167.027344 342.949219 169.574219 343.261719 172.128906 343.511719 C 174.679688 343.765625 177.238281 343.953125 179.800781 344.078125 C 182.363281 344.207031 184.929688 344.269531 187.496094 344.269531 C 190.058594 344.269531 192.625 344.207031 195.1875 344.078125 C 197.75 343.953125 200.308594 343.765625 202.859375 343.511719 C 205.414062 343.261719 207.960938 342.949219 210.5 342.570312 C 213.035156 342.195312 215.5625 341.757812 218.078125 341.253906 C 220.597656 340.753906 223.097656 340.191406 225.585938 339.570312 C 228.078125 338.945312 230.546875 338.261719 233.003906 337.515625 C 235.457031 336.773438 237.894531 335.96875 240.308594 335.105469 C 242.726562 334.238281 245.117188 333.316406 247.488281 332.335938 C 249.859375 331.351562 252.203125 330.3125 254.523438 329.214844 C 256.84375 328.121094 259.132812 326.964844 261.398438 325.757812 C 263.660156 324.546875 265.890625 323.28125 268.09375 321.964844 C 270.292969 320.644531 272.460938 319.273438 274.59375 317.847656 C 276.726562 316.421875 278.824219 314.945312 280.882812 313.417969 C 282.945312 311.886719 284.96875 310.308594 286.949219 308.683594 C 288.933594 307.054688 290.875 305.378906 292.777344 303.65625 C 294.679688 301.933594 296.535156 300.164062 298.351562 298.351562 C 300.164062 296.535156 301.933594 294.679688 303.65625 292.777344 C 305.378906 290.875 307.054688 288.933594 308.683594 286.949219 C 310.308594 284.96875 311.886719 282.945312 313.417969 280.882812 C 314.945312 278.824219 316.421875 276.726562 317.847656 274.59375 C 319.273438 272.460938 320.644531 270.292969 321.964844 268.09375 C 323.28125 265.890625 324.546875 263.660156 325.757812 261.398438 C 326.964844 259.132812 328.121094 256.84375 329.214844 254.523438 C 330.3125 252.203125 331.351562 249.859375 332.335938 247.488281 C 333.316406 245.117188 334.238281 242.726562 335.105469 240.308594 C 335.96875 237.894531 336.773438 235.457031 337.515625 233.003906 C 338.261719 230.546875 338.945312 228.078125 339.570312 225.585938 C 340.191406 223.097656 340.753906 220.597656 341.253906 218.078125 C 341.757812 215.5625 342.195312 213.035156 342.570312 210.5 C 342.949219 207.960938 343.261719 205.414062 343.511719 202.859375 C 343.765625 200.308594 343.953125 197.75 344.078125 195.1875 C 344.207031 192.625 344.269531 190.058594 344.269531 187.496094 C 344.265625 184.929688 344.199219 182.367188 344.070312 179.804688 C 343.941406 177.242188 343.75 174.6875 343.496094 172.132812 C 343.242188 169.582031 342.925781 167.035156 342.546875 164.5 C 342.167969 161.964844 341.726562 159.4375 341.226562 156.921875 C 340.722656 154.40625 340.160156 151.90625 339.535156 149.417969 C 338.910156 146.929688 338.222656 144.460938 337.476562 142.007812 C 336.730469 139.550781 335.925781 137.117188 335.058594 134.703125 C 334.191406 132.289062 333.269531 129.898438 332.285156 127.527344 C 331.304688 125.160156 330.261719 122.816406 329.164062 120.496094 C 328.066406 118.179688 326.914062 115.890625 325.703125 113.628906 C 324.492188 111.367188 323.226562 109.136719 321.910156 106.9375 C 320.589844 104.738281 319.21875 102.570312 317.792969 100.4375 C 316.367188 98.304688 314.890625 96.210938 313.359375 94.152344 C 311.832031 92.089844 310.253906 90.070312 308.625 88.085938 C 307 86.105469 305.324219 84.164062 303.601562 82.261719 C 301.878906 80.363281 300.109375 78.503906 298.296875 76.691406 C 296.484375 74.878906 294.625 73.109375 292.726562 71.386719 C 290.824219 69.664062 288.882812 67.988281 286.902344 66.363281 C 284.917969 64.734375 282.898438 63.15625 280.839844 61.628906 C 278.777344 60.101562 276.683594 58.625 274.550781 57.199219 C 272.417969 55.773438 270.253906 54.398438 268.054688 53.082031 C 265.851562 51.761719 263.621094 50.496094 261.363281 49.285156 C 259.101562 48.074219 256.808594 46.921875 254.492188 45.824219 C 252.175781 44.726562 249.832031 43.6875 247.460938 42.703125 C 245.09375 41.71875 242.699219 40.796875 240.285156 39.929688 C 237.871094 39.066406 235.4375 38.257812 232.984375 37.511719 C 230.53125 36.765625 228.058594 36.082031 225.570312 35.457031 C 223.082031 34.828125 220.582031 34.265625 218.066406 33.761719 C 215.550781 33.261719 213.027344 32.820312 210.488281 32.441406 C 207.953125 32.0625 205.40625 31.746094 202.855469 31.492188 C 200.304688 31.238281 197.746094 31.046875 195.183594 30.917969 C 192.621094 30.789062 190.058594 30.722656 187.496094 30.722656 Z M 187.496094 320.148438 C 185.324219 320.148438 183.152344 320.097656 180.984375 319.988281 C 178.816406 319.882812 176.652344 319.722656 174.492188 319.511719 C 172.332031 319.296875 170.179688 319.03125 168.03125 318.714844 C 165.882812 318.394531 163.746094 318.023438 161.613281 317.601562 C 159.484375 317.175781 157.367188 316.699219 155.261719 316.171875 C 153.15625 315.644531 151.066406 315.066406 148.988281 314.4375 C 146.910156 313.808594 144.847656 313.125 142.804688 312.394531 C 140.761719 311.664062 138.734375 310.882812 136.730469 310.050781 C 134.722656 309.21875 132.738281 308.339844 130.777344 307.414062 C 128.816406 306.484375 126.875 305.507812 124.960938 304.484375 C 123.046875 303.460938 121.160156 302.390625 119.296875 301.277344 C 117.433594 300.160156 115.601562 299 113.796875 297.792969 C 111.992188 296.585938 110.214844 295.335938 108.472656 294.042969 C 106.730469 292.75 105.019531 291.414062 103.339844 290.039062 C 101.660156 288.660156 100.019531 287.242188 98.410156 285.785156 C 96.800781 284.328125 95.230469 282.832031 93.695312 281.296875 C 92.160156 279.761719 90.664062 278.1875 89.203125 276.578125 C 87.746094 274.972656 86.328125 273.328125 84.953125 271.648438 C 83.574219 269.972656 82.238281 268.261719 80.945312 266.515625 C 79.652344 264.773438 78.402344 263 77.195312 261.195312 C 75.992188 259.386719 74.828125 257.554688 73.714844 255.691406 C 72.597656 253.832031 71.527344 251.941406 70.503906 250.027344 C 69.480469 248.113281 68.503906 246.175781 67.578125 244.210938 C 66.648438 242.25 65.769531 240.265625 64.9375 238.257812 C 64.105469 236.253906 63.324219 234.230469 62.59375 232.183594 C 61.863281 230.140625 61.183594 228.078125 60.550781 226.003906 C 59.921875 223.925781 59.34375 221.832031 58.816406 219.726562 C 58.289062 217.621094 57.8125 215.503906 57.390625 213.375 C 56.964844 211.246094 56.59375 209.105469 56.277344 206.960938 C 55.957031 204.8125 55.691406 202.65625 55.480469 200.496094 C 55.265625 198.335938 55.105469 196.171875 55 194.003906 C 54.894531 191.835938 54.839844 189.664062 54.839844 187.496094 C 54.839844 185.324219 54.894531 183.152344 55 180.984375 C 55.105469 178.816406 55.265625 176.652344 55.480469 174.492188 C 55.691406 172.332031 55.957031 170.179688 56.277344 168.03125 C 56.59375 165.882812 56.964844 163.746094 57.390625 161.613281 C 57.8125 159.484375 58.289062 157.367188 58.816406 155.261719 C 59.34375 153.15625 59.921875 151.066406 60.550781 148.988281 C 61.183594 146.910156 61.863281 144.847656 62.59375 142.804688 C 63.324219 140.761719 64.105469 138.734375 64.9375 136.730469 C 65.769531 134.722656 66.648438 132.738281 67.578125 130.777344 C 68.503906 128.816406 69.480469 126.875 70.503906 124.960938 C 71.527344 123.046875 72.597656 121.160156 73.714844 119.296875 C 74.828125 117.433594 75.992188 115.601562 77.195312 113.796875 C 78.402344 111.992188 79.652344 110.214844 80.945312 108.472656 C 82.238281 106.730469 83.574219 105.019531 84.953125 103.339844 C 86.328125 101.660156 87.746094 100.019531 89.203125 98.410156 C 90.664062 96.800781 92.160156 95.230469 93.695312 93.695312 C 95.230469 92.160156 96.800781 90.664062 98.410156 89.203125 C 100.019531 87.746094 101.660156 86.328125 103.339844 84.953125 C 105.019531 83.574219 106.730469 82.238281 108.472656 80.945312 C 110.214844 79.652344 111.992188 78.402344 113.796875 77.195312 C 115.601562 75.992188 117.433594 74.828125 119.296875 73.714844 C 121.160156 72.597656 123.046875 71.527344 124.960938 70.503906 C 126.875 69.480469 128.816406 68.503906 130.777344 67.578125 C 132.738281 66.648438 134.722656 65.769531 136.730469 64.9375 C 138.734375 64.105469 140.761719 63.324219 142.804688 62.59375 C 144.847656 61.863281 146.910156 61.183594 148.988281 60.550781 C 151.066406 59.921875 153.15625 59.34375 155.261719 58.816406 C 157.367188 58.289062 159.484375 57.8125 161.613281 57.390625 C 163.746094 56.964844 165.882812 56.59375 168.03125 56.277344 C 170.179688 55.957031 172.332031 55.691406 174.492188 55.480469 C 176.652344 55.265625 178.816406 55.105469 180.984375 55 C 183.152344 54.894531 185.324219 54.839844 187.496094 54.839844 C 189.664062 54.839844 191.835938 54.894531 194.003906 55 C 196.171875 55.105469 198.335938 55.265625 200.496094 55.480469 C 202.65625 55.691406 204.8125 55.957031 206.960938 56.277344 C 209.105469 56.59375 211.246094 56.964844 213.375 57.390625 C 215.503906 57.8125 217.621094 58.289062 219.726562 58.816406 C 221.832031 59.34375 223.925781 59.921875 226.003906 60.550781 C 228.078125 61.183594 230.140625 61.863281 232.183594 62.59375 C 234.230469 63.324219 236.253906 64.105469 238.257812 64.9375 C 240.265625 65.769531 242.25 66.648438 244.210938 67.578125 C 246.175781 68.503906 248.113281 69.480469 250.027344 70.503906 C 251.941406 71.527344 253.832031 72.597656 255.691406 73.714844 C 257.554688 74.828125 259.386719 75.992188 261.195312 77.195312 C 263 78.402344 264.773438 79.652344 266.515625 80.945312 C 268.261719 82.238281 269.972656 83.574219 271.648438 84.953125 C 273.328125 86.328125 274.972656 87.746094 276.578125 89.203125 C 278.1875 90.664062 279.761719 92.160156 281.296875 93.695312 C 282.832031 95.230469 284.328125 96.800781 285.785156 98.410156 C 287.242188 100.019531 288.660156 101.660156 290.039062 103.339844 C 291.414062 105.019531 292.75 106.730469 294.042969 108.472656 C 295.335938 110.214844 296.585938 111.992188 297.792969 113.796875 C 299 115.601562 300.160156 117.433594 301.277344 119.296875 C 302.390625 121.160156 303.460938 123.046875 304.484375 124.960938 C 305.507812 126.875 306.484375 128.816406 307.414062 130.777344 C 308.339844 132.738281 309.21875 134.722656 310.050781 136.730469 C 310.882812 138.734375 311.664062 140.761719 312.394531 142.804688 C 313.125 144.847656 313.808594 146.910156 314.4375 148.988281 C 315.066406 151.066406 315.644531 153.15625 316.171875 155.261719 C 316.699219 157.367188 317.175781 159.484375 317.601562 161.613281 C 318.023438 163.746094 318.394531 165.882812 318.714844 168.03125 C 319.03125 170.179688 319.296875 172.332031 319.511719 174.492188 C 319.722656 176.652344 319.882812 178.816406 319.988281 180.984375 C 320.097656 183.152344 320.148438 185.324219 320.148438 187.496094 C 320.148438 189.664062 320.089844 191.832031 319.980469 194 C 319.875 196.167969 319.710938 198.332031 319.496094 200.492188 C 319.28125 202.652344 319.011719 204.804688 318.691406 206.953125 C 318.371094 209.097656 318 211.234375 317.574219 213.363281 C 317.148438 215.492188 316.671875 217.609375 316.144531 219.714844 C 315.613281 221.816406 315.035156 223.910156 314.402344 225.984375 C 313.769531 228.0625 313.089844 230.121094 312.355469 232.164062 C 311.625 234.207031 310.839844 236.230469 310.007812 238.234375 C 309.179688 240.238281 308.296875 242.222656 307.367188 244.183594 C 306.441406 246.144531 305.464844 248.082031 304.4375 249.996094 C 303.414062 251.910156 302.34375 253.796875 301.230469 255.660156 C 300.113281 257.519531 298.949219 259.351562 297.746094 261.15625 C 296.539062 262.960938 295.289062 264.734375 293.996094 266.476562 C 292.703125 268.21875 291.367188 269.929688 289.988281 271.609375 C 288.613281 273.285156 287.195312 274.929688 285.738281 276.535156 C 284.28125 278.144531 282.785156 279.714844 281.25 281.25 C 279.714844 282.785156 278.144531 284.28125 276.535156 285.738281 C 274.929688 287.195312 273.285156 288.613281 271.609375 289.988281 C 269.929688 291.367188 268.21875 292.703125 266.476562 293.996094 C 264.734375 295.289062 262.960938 296.539062 261.15625 297.746094 C 259.351562 298.949219 257.519531 300.113281 255.660156 301.230469 C 253.796875 302.34375 251.910156 303.414062 249.996094 304.4375 C 248.082031 305.464844 246.144531 306.441406 244.183594 307.367188 C 242.222656 308.296875 240.238281 309.179688 238.234375 310.007812 C 236.230469 310.839844 234.207031 311.625 232.164062 312.355469 C 230.121094 313.089844 228.0625 313.769531 225.984375 314.402344 C 223.910156 315.035156 221.816406 315.613281 219.714844 316.144531 C 217.609375 316.671875 215.492188 317.148438 213.363281 317.574219 C 211.234375 318 209.097656 318.371094 206.953125 318.691406 C 204.804688 319.011719 202.652344 319.28125 200.492188 319.496094 C 198.332031 319.710938 196.167969 319.875 194 319.980469 C 191.832031 320.089844 189.664062 320.148438 187.496094 320.148438 Z M 187.496094 320.148438 " fill-opacity="1" fill-rule="nonzero"/></g><path fill="#207bff" d="M 196.140625 103.839844 C 195.273438 103.679688 194.40625 103.546875 193.53125 103.4375 C 192.660156 103.324219 191.78125 103.238281 190.90625 103.175781 C 190.027344 103.113281 189.148438 103.078125 188.269531 103.0625 C 187.386719 103.046875 186.507812 103.058594 185.628906 103.09375 C 184.75 103.125 183.871094 103.183594 182.992188 103.265625 C 182.117188 103.347656 181.242188 103.457031 180.375 103.585938 C 179.503906 103.714844 178.636719 103.867188 177.773438 104.046875 C 176.910156 104.222656 176.054688 104.425781 175.203125 104.648438 C 174.351562 104.875 173.507812 105.121094 172.671875 105.390625 C 171.832031 105.660156 171.003906 105.953125 170.179688 106.269531 C 169.359375 106.585938 168.546875 106.925781 167.742188 107.285156 C 166.941406 107.644531 166.148438 108.027344 165.367188 108.433594 C 164.582031 108.835938 163.8125 109.261719 163.054688 109.707031 C 162.296875 110.152344 161.550781 110.617188 160.816406 111.105469 C 160.082031 111.59375 159.363281 112.097656 158.65625 112.625 C 157.953125 113.152344 157.261719 113.695312 156.585938 114.261719 C 155.910156 114.824219 155.25 115.40625 154.605469 116.007812 C 153.960938 116.609375 153.335938 117.226562 152.722656 117.859375 C 152.113281 118.492188 151.523438 119.144531 150.945312 119.8125 C 150.371094 120.480469 149.816406 121.160156 149.28125 121.859375 C 148.742188 122.554688 148.222656 123.265625 147.726562 123.992188 C 147.226562 124.71875 146.75 125.457031 146.292969 126.210938 C 145.835938 126.960938 145.398438 127.726562 144.980469 128.5 C 144.566406 129.277344 144.171875 130.0625 143.796875 130.859375 C 143.425781 131.660156 143.074219 132.464844 142.746094 133.28125 C 142.417969 134.097656 142.109375 134.921875 141.828125 135.757812 C 141.542969 136.589844 141.285156 137.429688 141.046875 138.277344 C 140.808594 139.125 140.59375 139.980469 140.402344 140.839844 C 140.210938 141.699219 140.046875 142.5625 139.902344 143.429688 C 139.757812 144.300781 139.640625 145.171875 139.542969 146.046875 C 139.449219 146.921875 139.375 147.796875 139.328125 148.675781 C 139.28125 149.554688 139.257812 150.4375 139.257812 151.316406 L 163.375 151.316406 C 163.375 150.433594 163.421875 149.550781 163.519531 148.671875 C 163.613281 147.792969 163.757812 146.921875 163.953125 146.058594 C 164.144531 145.195312 164.382812 144.34375 164.667969 143.507812 C 164.953125 142.671875 165.285156 141.851562 165.660156 141.050781 C 166.035156 140.25 166.453125 139.472656 166.914062 138.71875 C 167.375 137.964844 167.878906 137.234375 168.417969 136.535156 C 168.960938 135.835938 169.539062 135.167969 170.152344 134.535156 C 170.765625 133.898438 171.414062 133.296875 172.09375 132.734375 C 172.777344 132.167969 173.484375 131.644531 174.222656 131.15625 C 174.960938 130.667969 175.726562 130.226562 176.511719 129.820312 C 177.300781 129.417969 178.105469 129.0625 178.933594 128.746094 C 179.761719 128.433594 180.601562 128.164062 181.457031 127.945312 C 182.3125 127.722656 183.179688 127.550781 184.054688 127.421875 C 184.929688 127.296875 185.808594 127.21875 186.695312 127.191406 C 187.578125 127.160156 188.460938 127.179688 189.34375 127.246094 C 190.222656 127.316406 191.101562 127.429688 191.96875 127.59375 C 193.125 127.8125 194.257812 128.109375 195.367188 128.492188 C 196.480469 128.871094 197.554688 129.332031 198.601562 129.871094 C 199.644531 130.410156 200.644531 131.019531 201.597656 131.707031 C 202.550781 132.390625 203.453125 133.140625 204.296875 133.957031 C 205.140625 134.773438 205.921875 135.648438 206.640625 136.578125 C 207.355469 137.507812 208.003906 138.484375 208.578125 139.507812 C 209.152344 140.535156 209.648438 141.59375 210.070312 142.691406 C 210.488281 143.789062 210.824219 144.910156 211.082031 146.058594 C 211.335938 147.203125 211.507812 148.363281 211.59375 149.535156 C 211.679688 150.707031 211.679688 151.878906 211.59375 153.050781 C 211.511719 154.222656 211.339844 155.378906 211.085938 156.527344 C 210.832031 157.675781 210.496094 158.796875 210.078125 159.894531 C 209.660156 160.992188 209.164062 162.054688 208.589844 163.078125 C 208.015625 164.105469 207.371094 165.082031 206.652344 166.011719 C 205.9375 166.945312 205.15625 167.816406 204.3125 168.636719 C 203.46875 169.453125 202.570312 170.203125 201.617188 170.890625 C 199.648438 172.226562 197.769531 173.675781 195.976562 175.238281 C 194.183594 176.796875 192.488281 178.460938 190.890625 180.226562 C 189.296875 181.988281 187.8125 183.839844 186.4375 185.78125 C 185.0625 187.722656 183.808594 189.738281 182.675781 191.828125 C 181.542969 193.917969 180.535156 196.070312 179.660156 198.28125 C 178.78125 200.492188 178.039062 202.746094 177.433594 205.046875 C 176.824219 207.34375 176.355469 209.671875 176.027344 212.027344 C 175.695312 214.382812 175.507812 216.75 175.460938 219.125 L 175.460938 223.671875 L 199.578125 223.671875 L 199.578125 219.125 C 199.632812 217.699219 199.769531 216.285156 199.992188 214.875 C 200.214844 213.464844 200.519531 212.074219 200.90625 210.699219 C 201.296875 209.328125 201.761719 207.984375 202.3125 206.664062 C 202.859375 205.347656 203.484375 204.066406 204.183594 202.824219 C 204.882812 201.582031 205.65625 200.382812 206.496094 199.234375 C 207.339844 198.082031 208.246094 196.984375 209.222656 195.941406 C 210.195312 194.898438 211.226562 193.914062 212.316406 192.996094 C 213.40625 192.074219 214.546875 191.222656 215.738281 190.4375 C 217.648438 189.0625 219.445312 187.554688 221.136719 185.914062 C 222.824219 184.277344 224.382812 182.523438 225.816406 180.65625 C 227.25 178.789062 228.539062 176.828125 229.683594 174.769531 C 230.828125 172.714844 231.816406 170.585938 232.652344 168.386719 C 233.484375 166.1875 234.152344 163.9375 234.65625 161.636719 C 235.164062 159.339844 235.496094 157.015625 235.660156 154.667969 C 235.824219 152.320312 235.816406 149.972656 235.640625 147.628906 C 235.460938 145.28125 235.109375 142.960938 234.59375 140.664062 C 234.074219 138.367188 233.390625 136.125 232.542969 133.929688 C 231.695312 131.734375 230.691406 129.609375 229.535156 127.5625 C 228.375 125.511719 227.074219 123.558594 225.632812 121.703125 C 224.1875 119.84375 222.617188 118.101562 220.917969 116.472656 C 219.21875 114.84375 217.410156 113.347656 215.492188 111.984375 C 213.574219 110.621094 211.566406 109.402344 209.472656 108.332031 C 207.375 107.265625 205.210938 106.351562 202.984375 105.597656 C 200.753906 104.847656 198.480469 104.257812 196.164062 103.839844 Z M 196.140625 103.839844 " fill-opacity="1" fill-rule="nonzero"/><path fill="#207bff" d="M 199.554688 259.851562 C 199.554688 260.644531 199.476562 261.429688 199.324219 262.203125 C 199.167969 262.980469 198.9375 263.734375 198.636719 264.464844 C 198.332031 265.199219 197.960938 265.894531 197.523438 266.550781 C 197.082031 267.210938 196.582031 267.820312 196.023438 268.378906 C 195.460938 268.9375 194.851562 269.4375 194.195312 269.878906 C 193.535156 270.320312 192.839844 270.691406 192.109375 270.992188 C 191.378906 271.296875 190.625 271.523438 189.847656 271.679688 C 189.070312 271.832031 188.285156 271.910156 187.496094 271.910156 C 186.703125 271.910156 185.917969 271.832031 185.140625 271.679688 C 184.367188 271.523438 183.609375 271.296875 182.878906 270.992188 C 182.148438 270.691406 181.453125 270.320312 180.792969 269.878906 C 180.136719 269.4375 179.527344 268.9375 178.96875 268.378906 C 178.40625 267.820312 177.90625 267.210938 177.46875 266.550781 C 177.027344 265.894531 176.65625 265.199219 176.351562 264.464844 C 176.050781 263.734375 175.820312 262.980469 175.667969 262.203125 C 175.511719 261.429688 175.433594 260.644531 175.433594 259.851562 C 175.433594 259.058594 175.511719 258.277344 175.667969 257.5 C 175.820312 256.722656 176.050781 255.96875 176.351562 255.238281 C 176.65625 254.503906 177.027344 253.808594 177.46875 253.152344 C 177.90625 252.492188 178.40625 251.882812 178.96875 251.324219 C 179.527344 250.765625 180.136719 250.265625 180.792969 249.824219 C 181.453125 249.382812 182.148438 249.011719 182.878906 248.710938 C 183.609375 248.40625 184.367188 248.179688 185.140625 248.023438 C 185.917969 247.871094 186.703125 247.792969 187.496094 247.792969 C 188.285156 247.792969 189.070312 247.871094 189.847656 248.023438 C 190.625 248.179688 191.378906 248.40625 192.109375 248.710938 C 192.839844 249.011719 193.535156 249.382812 194.195312 249.824219 C 194.851562 250.265625 195.460938 250.765625 196.023438 251.324219 C 196.582031 251.882812 197.082031 252.492188 197.523438 253.152344 C 197.960938 253.808594 198.332031 254.503906 198.636719 255.238281 C 198.9375 255.96875 199.167969 256.722656 199.324219 257.5 C 199.476562 258.277344 199.554688 259.058594 199.554688 259.851562 Z M 199.554688 259.851562 " fill-opacity="1" fill-rule="nonzero"/></svg>