<svg xmlns="http://www.w3.org/2000/svg" xmlns:xlink="http://www.w3.org/1999/xlink" width="500" zoomAndPan="magnify" viewBox="0 0 375 374.999991" height="500" preserveAspectRatio="xMidYMid meet" version="1.0"><defs><clipPath id="b02fc65d93"><path d="M 0 50.5625 L 375 50.5625 L 375 352 L 0 352 Z M 0 50.5625 " clip-rule="nonzero"/></clipPath></defs><g clip-path="url(#b02fc65d93)"><path fill="#207bff" d="M 190.113281 290.792969 C 181.867188 290.792969 174.410156 294.089844 168.894531 299.394531 L 168.535156 299.757812 C 163.011719 305.28125 159.570312 312.871094 159.570312 321.332031 C 159.570312 329.71875 163.011719 337.394531 168.535156 342.910156 C 174.058594 348.433594 181.726562 351.871094 190.113281 351.871094 C 198.355469 351.871094 205.8125 348.574219 211.328125 343.269531 L 211.6875 342.910156 C 217.210938 337.382812 220.652344 329.792969 220.652344 321.332031 C 220.652344 312.945312 217.210938 305.269531 211.6875 299.757812 C 206.164062 294.242188 198.496094 290.792969 190.113281 290.792969 Z M 203.085938 334.3125 L 202.800781 334.597656 C 199.503906 337.753906 195.058594 339.6875 190.113281 339.6875 C 185.023438 339.6875 180.4375 337.613281 177.140625 334.3125 C 173.84375 331.015625 171.765625 326.429688 171.765625 321.339844 C 171.765625 316.253906 173.84375 311.667969 177.140625 308.371094 L 177.425781 308.085938 C 180.722656 304.929688 185.164062 302.996094 190.113281 302.996094 C 195.199219 302.996094 199.785156 305.070312 203.085938 308.371094 C 206.457031 311.742188 208.457031 316.328125 208.457031 321.34375 C 208.464844 326.421875 206.382812 331.015625 203.085938 334.3125 Z M 318.792969 185.050781 C 302.019531 168.28125 281.941406 154.730469 259.65625 145.480469 C 238.21875 136.59375 214.703125 131.648438 190.046875 131.648438 C 165.457031 131.648438 141.945312 136.59375 120.4375 145.480469 C 98.140625 154.730469 78.070312 168.28125 61.296875 185.050781 L 58.863281 187.5625 C 56.570312 189.933594 56.636719 193.65625 58.9375 196.023438 L 85.035156 222.691406 C 87.402344 225.058594 91.269531 225.125 93.640625 222.765625 L 96.292969 220.046875 C 108.554688 207.785156 123.175781 197.96875 139.378906 191.230469 C 155.003906 184.777344 172.136719 181.195312 189.988281 181.195312 C 207.984375 181.195312 225.117188 184.777344 240.742188 191.230469 C 256.945312 197.902344 271.566406 207.792969 283.828125 220.046875 C 284.753906 220.832031 285.550781 221.769531 286.40625 222.625 C 288.773438 224.992188 292.574219 225.058594 295.007812 222.765625 L 321.171875 196.023438 C 323.539062 193.65625 323.539062 189.855469 321.171875 187.496094 C 320.945312 187.277344 318.792969 185.050781 318.792969 185.050781 Z M 290.972656 209.792969 C 278 197.246094 262.582031 187.070312 245.59375 180.039062 C 228.460938 173.019531 209.746094 169.066406 190.179688 169.066406 C 170.535156 169.066406 151.828125 172.941406 134.765625 180.039062 C 117.699219 187.0625 102.355469 197.246094 89.382812 209.792969 L 71.96875 191.875 C 87.234375 177.035156 105.304688 165.066406 125.230469 156.824219 C 145.234375 148.578125 167.171875 143.992188 190.253906 143.992188 C 213.335938 143.992188 235.273438 148.511719 255.277344 156.824219 C 275.203125 165.066406 293.273438 177.035156 308.539062 191.875 Z M 377.789062 129.496094 C 377.570312 129.355469 376.0625 127.847656 376.0625 127.769531 C 351.835938 103.542969 322.867188 83.972656 290.613281 70.632812 C 259.644531 57.8125 225.664062 50.714844 190.035156 50.714844 C 154.484375 50.714844 120.503906 57.8125 89.460938 70.640625 C 57.207031 83.972656 28.238281 103.550781 4.007812 127.78125 L 2.285156 129.570312 C -0.0078125 131.941406 -0.0078125 135.742188 2.285156 138.101562 L 28.378906 164.765625 C 30.75 167.132812 34.613281 167.199219 36.984375 164.839844 L 39.058594 162.765625 C 58.769531 143.054688 82.289062 127.210938 108.382812 116.382812 C 133.542969 105.988281 161.144531 100.179688 190.035156 100.253906 C 218.992188 100.253906 246.597656 105.988281 271.765625 116.382812 C 297.859375 127.136719 321.371094 143.046875 341.089844 162.765625 C 341.808594 163.410156 342.453125 164.128906 343.097656 164.773438 C 345.464844 167.144531 349.332031 167.210938 351.703125 164.851562 L 377.863281 138.109375 C 380.222656 135.742188 380.15625 131.863281 377.789062 129.496094 Z M 347.609375 151.867188 C 327.246094 132.160156 303.234375 116.164062 276.570312 105.125 C 249.902344 94.085938 220.792969 87.992188 190.1875 87.992188 C 159.582031 87.992188 130.394531 94.085938 103.808594 105.125 C 77.132812 116.164062 53.046875 132.148438 32.757812 151.867188 L 15.332031 133.941406 C 37.988281 111.929688 64.730469 94.152344 94.253906 81.898438 C 123.78125 69.648438 156.1875 62.898438 190.246094 62.898438 C 224.300781 62.898438 256.699219 69.636719 286.234375 81.898438 C 315.769531 94.160156 342.511719 111.9375 365.15625 133.941406 Z M 259.578125 244.34375 C 250.472656 235.3125 239.652344 227.996094 227.609375 222.984375 C 215.988281 218.179688 203.300781 215.527344 190.046875 215.527344 C 176.78125 215.527344 164.089844 218.179688 152.484375 222.984375 C 140.441406 228.003906 129.617188 235.3125 120.578125 244.34375 C 119.507812 245.414062 118.503906 246.492188 117.421875 247.640625 C 115.273438 250.074219 115.347656 253.730469 117.566406 256.027344 L 143.726562 282.691406 C 146.097656 285.058594 149.964844 285.125 152.332031 282.765625 L 154.121094 280.832031 L 155.554688 279.328125 C 160.074219 274.804688 165.445312 271.160156 171.398438 268.714844 C 177.128906 266.34375 183.441406 264.988281 190.179688 265.054688 C 196.847656 265.054688 203.152344 266.34375 208.894531 268.714844 C 214.84375 271.148438 220.214844 274.804688 224.734375 279.328125 L 226.167969 280.832031 L 227.53125 282.339844 C 229.683594 284.851562 233.480469 285.210938 236.058594 283.058594 L 236.484375 282.699219 L 262.582031 256.035156 C 264.808594 253.664062 264.875 250.007812 262.722656 247.648438 Z M 232.195312 269.652344 C 226.820312 264.5625 220.433594 260.402344 213.414062 257.464844 C 206.238281 254.453125 198.355469 252.804688 190.113281 252.804688 C 181.945312 252.804688 174.050781 254.453125 166.8125 257.464844 C 159.789062 260.335938 153.402344 264.5625 148.03125 269.652344 L 130.472656 251.734375 C 138.136719 244.351562 147.175781 238.402344 157.136719 234.242188 C 167.3125 230.015625 178.429688 227.722656 190.113281 227.722656 C 201.871094 227.722656 212.976562 230.089844 223.085938 234.242188 C 233.054688 238.402344 242.085938 244.351562 249.753906 251.734375 Z M 232.195312 269.652344 " fill-opacity="1" fill-rule="nonzero"/></g></svg>