<svg xmlns="http://www.w3.org/2000/svg" xmlns:xlink="http://www.w3.org/1999/xlink" width="500" zoomAndPan="magnify" viewBox="0 0 375 374.999991" height="500" preserveAspectRatio="xMidYMid meet" version="1.0"><defs><clipPath id="9452656a87"><path d="M 157 311 L 239 311 L 239 344.480469 L 157 344.480469 Z M 157 311 " clip-rule="nonzero"/></clipPath><clipPath id="5e5a29ee6a"><path d="M 49.402344 18 L 346.402344 18 L 346.402344 300 L 49.402344 300 Z M 49.402344 18 " clip-rule="nonzero"/></clipPath></defs><g clip-path="url(#9452656a87)"><path fill="#207bff" d="M 197.976562 329.445312 C 186.164062 329.445312 175.527344 322.460938 170.765625 311.628906 L 157.191406 317.566406 C 164.304688 333.75 180.292969 344.257812 197.976562 344.257812 C 215.921875 344.257812 231.976562 333.621094 238.960938 317.109375 L 225.320312 311.300781 C 220.621094 322.332031 209.917969 329.445312 197.976562 329.445312 Z M 197.976562 329.445312 " fill-opacity="1" fill-rule="nonzero"/></g><g clip-path="url(#5e5a29ee6a)"><path fill="#207bff" d="M 343.632812 279.261719 L 304.476562 246.632812 C 302.78125 245.195312 301.800781 243.171875 301.800781 240.953125 L 301.800781 151.421875 C 301.800781 122.773438 290.382812 96.082031 269.628906 76.308594 C 257.425781 64.695312 242.941406 56.472656 227.277344 51.902344 C 227.605469 49.621094 227.734375 47.335938 227.539062 44.921875 C 226.429688 32.261719 217.097656 21.492188 204.828125 18.753906 C 195.824219 16.730469 186.558594 18.816406 179.445312 24.496094 C 172.398438 30.171875 168.351562 38.589844 168.351562 47.660156 C 168.351562 49.164062 168.613281 50.53125 168.808594 51.96875 C 125.476562 64.890625 94.152344 105.742188 94.152344 154.160156 L 94.152344 240.890625 C 94.152344 243.109375 93.175781 245.195312 91.476562 246.566406 L 52.324219 279.195312 C 50.625 280.632812 49.648438 282.71875 49.648438 284.871094 L 49.648438 292.3125 C 49.648438 296.421875 52.976562 299.75 57.085938 299.75 L 338.867188 299.75 C 342.980469 299.75 346.308594 296.421875 346.308594 292.3125 L 346.308594 284.871094 C 346.242188 282.71875 345.261719 280.632812 343.632812 279.261719 Z M 183.097656 47.660156 C 183.097656 43.09375 185.121094 38.917969 188.644531 36.046875 C 192.234375 33.175781 196.738281 32.128906 201.5 33.175781 C 207.441406 34.542969 212.136719 39.960938 212.726562 46.160156 C 212.789062 47.007812 212.660156 47.859375 212.59375 48.707031 C 206.132812 47.792969 199.609375 47.464844 192.886719 47.726562 C 189.625 47.859375 186.363281 48.183594 183.164062 48.707031 C 183.230469 48.3125 183.097656 47.988281 183.097656 47.660156 Z M 68.636719 284.9375 L 100.941406 257.988281 C 106.03125 253.746094 108.964844 247.546875 108.964844 240.890625 L 108.964844 154.160156 C 108.964844 105.023438 146.164062 64.757812 193.671875 62.539062 C 218.335938 61.367188 241.632812 70.109375 259.382812 87.011719 C 277.136719 103.980469 286.921875 126.820312 286.921875 151.421875 L 286.921875 240.890625 C 286.921875 247.480469 289.859375 253.746094 294.949219 257.988281 L 327.253906 284.9375 Z M 68.636719 284.9375 " fill-opacity="1" fill-rule="nonzero"/></g></svg>