<svg xmlns="http://www.w3.org/2000/svg" xmlns:xlink="http://www.w3.org/1999/xlink" width="500" zoomAndPan="magnify" viewBox="0 0 375 374.999991" height="500" preserveAspectRatio="xMidYMid meet" version="1.0"><defs><clipPath id="98c05a0e89"><path d="M 37.5 37.5 L 337.5 37.5 L 337.5 337.5 L 37.5 337.5 Z M 37.5 37.5 " clip-rule="nonzero"/></clipPath></defs><g clip-path="url(#98c05a0e89)"><path fill="#207bff" d="M 293.5625 81.433594 C 265.230469 53.101562 227.5625 37.5 187.496094 37.5 C 147.433594 37.5 109.765625 53.101562 81.433594 81.433594 C 53.101562 109.765625 37.5 147.429688 37.5 187.496094 C 37.5 227.5625 53.101562 265.230469 81.433594 293.5625 C 109.765625 321.894531 147.433594 337.496094 187.496094 337.496094 C 227.5625 337.496094 265.230469 321.894531 293.5625 293.5625 C 321.894531 265.230469 337.496094 227.5625 337.496094 187.496094 C 337.496094 147.433594 321.894531 109.765625 293.5625 81.433594 Z M 88.238281 88.238281 C 114.753906 61.726562 150.003906 47.125 187.496094 47.125 C 224.992188 47.125 260.242188 61.726562 286.753906 88.238281 C 313.269531 114.753906 327.871094 150.003906 327.871094 187.496094 C 327.871094 218.667969 317.769531 248.28125 299.136719 272.617188 C 284.304688 251.878906 260.621094 239.628906 234.902344 239.628906 L 140.089844 239.628906 C 114.371094 239.628906 90.691406 251.878906 75.859375 272.617188 C 57.222656 248.28125 47.125 218.667969 47.125 187.496094 C 47.125 150.003906 61.726562 114.753906 88.238281 88.238281 Z M 187.496094 231.722656 C 226.035156 231.722656 257.390625 200.367188 257.390625 161.828125 C 257.390625 123.289062 226.035156 91.9375 187.496094 91.9375 C 148.960938 91.9375 117.605469 123.289062 117.605469 161.828125 C 117.605469 200.367188 148.960938 231.722656 187.496094 231.722656 Z M 187.496094 231.722656 " fill-opacity="1" fill-rule="nonzero"/></g></svg>