<svg xmlns="http://www.w3.org/2000/svg" xmlns:xlink="http://www.w3.org/1999/xlink" width="500" zoomAndPan="magnify" viewBox="0 0 375 374.999991" height="500" preserveAspectRatio="xMidYMid meet" version="1.0"><defs><clipPath id="515b7c9d73"><path d="M 10.3125 1 L 364 1 L 364 375 L 10.3125 375 Z M 10.3125 1 " clip-rule="nonzero"/></clipPath></defs><path fill="#207bff" d="M 196.753906 309.34375 L 129.136719 322.558594 C 126.027344 323.167969 123.996094 326.183594 124.605469 329.296875 C 125.140625 332.035156 127.542969 333.9375 130.234375 333.9375 C 130.597656 333.9375 130.96875 333.902344 131.339844 333.828125 L 198.957031 320.609375 C 202.070312 320 204.097656 316.988281 203.488281 313.875 C 202.882812 310.765625 199.867188 308.734375 196.753906 309.34375 Z M 196.753906 309.34375 " fill-opacity="1" fill-rule="nonzero"/><g clip-path="url(#515b7c9d73)"><path fill="#207bff" d="M 363.339844 318.429688 C 362.003906 305.917969 355.363281 294.554688 345.121094 287.246094 L 308.695312 261.253906 C 308.851562 236.039062 300.941406 217.90625 285.164062 207.308594 C 284.78125 206.925781 284.347656 206.597656 283.867188 206.332031 L 230.851562 177.007812 L 204.203125 27.578125 C 202.695312 19.128906 197.984375 11.769531 190.933594 6.867188 C 183.886719 1.964844 175.347656 0.101562 166.902344 1.628906 L 49.773438 22.761719 C 32.390625 25.898438 20.769531 42.597656 23.871094 59.984375 L 39.46875 147.445312 L 31.917969 146.878906 C 21.5625 146.164062 12.550781 154.015625 11.839844 164.375 L 10.992188 176.660156 C 10.28125 187.023438 18.132812 196.03125 28.453125 196.738281 L 48.53125 198.253906 L 48.789062 199.699219 C 45.890625 200.398438 43.183594 201.789062 40.867188 203.804688 C 37.074219 207.109375 34.796875 211.691406 34.453125 216.710938 L 33.605469 228.996094 C 33.0625 236.898438 37.503906 244.007812 44.234375 247.257812 C 42.640625 249.828125 41.6875 252.761719 41.472656 255.863281 L 40.628906 268.148438 C 40.082031 276.101562 44.582031 283.25 51.386719 286.46875 C 49.738281 289.078125 48.753906 292.066406 48.535156 295.226562 L 47.691406 307.515625 C 46.980469 317.875 54.828125 326.882812 65.253906 327.597656 L 71.667969 327.96875 L 72.476562 332.523438 C 73.984375 340.976562 78.699219 348.332031 85.746094 353.234375 C 91.1875 357.023438 97.515625 358.996094 104.007812 358.996094 C 105.921875 358.996094 107.851562 358.824219 109.777344 358.476562 L 193.980469 343.28125 C 194.175781 343.328125 194.371094 343.363281 194.570312 343.386719 L 244.398438 349.519531 L 264.265625 363.074219 C 275.511719 370.75 288.765625 374.804688 302.261719 374.804688 C 304.875 374.804688 307.5 374.652344 310.121094 374.34375 C 326.265625 372.449219 341.179688 364.785156 352.121094 352.761719 C 360.585938 343.453125 364.675781 330.941406 363.339844 318.429688 Z M 29.28125 185.289062 C 25.234375 185.011719 22.167969 181.492188 22.449219 177.449219 L 23.292969 165.164062 C 23.570312 161.117188 27.078125 158.046875 31.09375 158.328125 L 41.550781 159.117188 L 46.449219 186.582031 Z M 45.0625 229.785156 L 45.90625 217.5 C 46.039062 215.539062 46.929688 213.75 48.410156 212.460938 C 49.890625 211.167969 51.792969 210.53125 53.746094 210.667969 L 78.664062 212.378906 C 82.710938 212.660156 85.777344 216.175781 85.496094 220.21875 L 84.652344 232.503906 C 84.375 236.550781 80.859375 239.625 76.8125 239.335938 L 51.890625 237.625 C 47.847656 237.347656 44.78125 233.828125 45.0625 229.785156 Z M 52.082031 268.9375 L 52.929688 256.652344 C 53.0625 254.691406 53.953125 252.902344 55.433594 251.609375 C 56.914062 250.320312 58.804688 249.683594 60.765625 249.820312 L 79.867188 251.136719 C 81.824219 251.269531 83.617188 252.160156 84.90625 253.640625 C 86.195312 255.121094 86.832031 257.015625 86.699219 258.976562 L 85.855469 271.261719 C 85.578125 275.304688 82.070312 278.375 78.015625 278.09375 L 58.914062 276.777344 C 54.871094 276.5 51.804688 272.980469 52.082031 268.9375 Z M 59.144531 308.300781 L 59.988281 296.015625 C 60.125 294.054688 61.011719 292.265625 62.492188 290.976562 C 63.839844 289.800781 65.53125 289.167969 67.347656 289.167969 C 67.53125 289.167969 67.710938 289.175781 67.894531 289.1875 L 76.984375 289.710938 C 81.03125 289.988281 84.09375 293.507812 83.816406 297.550781 L 82.972656 309.835938 C 82.695312 313.878906 79.175781 316.949219 75.132812 316.667969 C 75.109375 316.667969 75.089844 316.664062 75.066406 316.664062 L 65.976562 316.140625 C 61.929688 315.863281 58.867188 312.347656 59.144531 308.300781 Z M 107.738281 347.175781 C 102.3125 348.15625 96.828125 346.960938 92.300781 343.8125 C 87.777344 340.660156 84.75 335.9375 83.78125 330.507812 L 83.089844 326.621094 C 89.347656 323.910156 93.925781 317.886719 94.425781 310.625 L 95.269531 298.335938 C 95.617188 293.28125 93.921875 288.550781 90.886719 284.945312 C 94.519531 281.773438 96.953125 277.226562 97.308594 272.046875 L 98.152344 259.761719 C 98.496094 254.746094 96.867188 249.890625 93.5625 246.097656 C 92.964844 245.414062 92.328125 244.78125 91.652344 244.199219 C 94.179688 241.234375 95.820312 237.46875 96.105469 233.292969 L 96.953125 221.007812 C 97.664062 210.648438 89.8125 201.636719 79.453125 200.925781 L 60.4375 199.621094 L 35.175781 57.96875 C 33.183594 46.800781 40.644531 36.074219 51.8125 34.0625 L 52.042969 34.019531 L 56.410156 40.765625 C 60.390625 46.914062 67.679688 50.078125 74.890625 48.78125 L 152.222656 34.914062 C 159.4375 33.621094 165.167969 28.125 166.765625 20.972656 L 168.546875 12.996094 L 168.941406 12.925781 C 174.367188 11.945312 179.851562 13.140625 184.378906 16.292969 C 188.90625 19.441406 191.933594 24.167969 192.898438 29.597656 L 218.398438 172.554688 C 215.285156 172.121094 212.105469 172.140625 208.980469 172.644531 L 163.058594 180.027344 C 158.910156 180.691406 155.386719 183.195312 153.390625 186.894531 C 151.398438 190.589844 151.238281 194.910156 152.960938 198.742188 L 155.792969 205.050781 C 160.835938 216.285156 172.890625 223.007812 185.097656 221.394531 L 199.765625 219.457031 C 200.765625 219.324219 201.789062 219.679688 202.492188 220.40625 L 232.445312 251.316406 L 241.507812 302.132812 C 243.5 313.300781 236.035156 324.027344 224.871094 326.042969 Z M 343.625 345.035156 C 334.550781 355.007812 322.175781 361.367188 308.78125 362.941406 C 295.386719 364.511719 281.875 361.191406 270.738281 353.589844 L 249.71875 339.25 C 248.964844 338.734375 248.09375 338.40625 247.1875 338.292969 L 231.027344 336.304688 C 246.078125 331.476562 255.660156 316.09375 252.808594 300.117188 L 246.117188 262.585938 C 247.453125 262.515625 248.765625 261.984375 249.804688 260.980469 C 252.082031 258.773438 252.136719 255.140625 249.929688 252.863281 L 241.917969 244.59375 C 241.914062 244.589844 241.90625 244.582031 241.902344 244.578125 L 210.734375 212.414062 C 207.515625 209.09375 202.851562 207.46875 198.265625 208.074219 L 183.59375 210.011719 C 176.363281 210.964844 169.246094 206.992188 166.265625 200.347656 L 163.433594 194.042969 C 163.097656 193.289062 163.328125 192.65625 163.496094 192.34375 C 163.664062 192.035156 164.066406 191.492188 164.878906 191.363281 L 210.800781 183.980469 C 214.402344 183.402344 218.113281 183.832031 221.488281 185.164062 C 222.472656 186.28125 223.867188 186.996094 225.390625 187.105469 L 277.261719 215.796875 C 277.476562 215.980469 277.703125 216.148438 277.941406 216.300781 C 291.605469 225 297.894531 240.601562 297.164062 263.992188 C 297.105469 265.90625 298.003906 267.730469 299.566406 268.84375 L 338.453125 296.589844 C 346.027344 301.996094 350.9375 310.398438 351.925781 319.648438 C 352.914062 328.902344 349.886719 338.152344 343.625 345.035156 Z M 343.625 345.035156 " fill-opacity="1" fill-rule="nonzero"/></g></svg>