<svg xmlns="http://www.w3.org/2000/svg" xmlns:xlink="http://www.w3.org/1999/xlink" width="500" zoomAndPan="magnify" viewBox="0 0 375 374.999991" height="500" preserveAspectRatio="xMidYMid meet" version="1.0"><defs><clipPath id="94b46c109a"><path d="M 49 0 L 325.734375 0 L 325.734375 375 L 49 375 Z M 49 0 " clip-rule="nonzero"/></clipPath></defs><g clip-path="url(#94b46c109a)"><path fill="#207bff" d="M 260.316406 94.472656 C 228.648438 48.511719 196.546875 10.683594 196.257812 10.300781 L 187.453125 0 L 178.691406 10.300781 C 178.355469 10.683594 146.253906 48.511719 114.589844 94.421875 C 71.179688 157.421875 49.183594 205.308594 49.183594 236.734375 C 49.183594 273.644531 63.574219 308.394531 89.707031 334.476562 C 115.839844 360.609375 150.539062 375 187.5 375 C 224.414062 375 259.160156 360.609375 285.292969 334.476562 C 311.425781 308.34375 325.816406 273.644531 325.816406 236.683594 C 325.71875 205.308594 303.726562 157.421875 260.316406 94.472656 Z M 187.453125 351.949219 C 123.925781 351.949219 72.238281 300.261719 72.238281 236.734375 C 72.238281 218.445312 82.875 181.195312 133.453125 107.707031 C 154.582031 77.050781 175.902344 50.050781 187.453125 35.855469 C 199.003906 50.003906 220.226562 76.90625 241.351562 107.515625 C 259.449219 133.792969 273.839844 157.515625 284.089844 178.117188 C 296.410156 202.851562 302.667969 222.535156 302.667969 236.734375 C 302.714844 300.261719 250.980469 351.949219 187.453125 351.949219 Z M 187.453125 351.949219 " fill-opacity="1" fill-rule="nonzero"/></g><path fill="#207bff" d="M 196.691406 98.5625 C 200.492188 93.460938 199.484375 86.242188 194.382812 82.441406 C 189.28125 78.636719 182.0625 79.648438 178.257812 84.75 C 155.832031 114.589844 135.476562 145.148438 120.894531 170.703125 C 103.664062 201.023438 95.289062 222.585938 95.289062 236.734375 C 95.289062 287.554688 136.628906 328.894531 187.453125 328.894531 C 193.804688 328.894531 198.953125 323.746094 198.953125 317.394531 C 198.953125 311.039062 193.804688 305.890625 187.453125 305.890625 C 149.335938 305.890625 118.292969 274.898438 118.292969 236.734375 C 118.292969 232.257812 120.507812 217.964844 140.914062 182.109375 C 155.015625 157.324219 174.792969 127.679688 196.691406 98.5625 Z M 196.691406 98.5625 " fill-opacity="1" fill-rule="nonzero"/></svg>